<svg id="quality-badge-star-icon" xmlns="http://www.w3.org/2000/svg" width="36" height="36" viewBox="0 0 36 36">
  <path id="Path_5064" data-name="Path 5064" d="M18,0l3.961,3.22L27,2.411l1.819,4.77L33.589,9l-.809,5.039L36,18l-3.22,3.961L33.589,27l-4.77,1.819L27,33.589l-5.039-.809L18,36l-3.961-3.22L9,33.589l-1.819-4.77L2.411,27l.809-5.039L0,18l3.22-3.961L2.411,9l4.77-1.819L9,2.411l5.039.809L18,0Zm0,11.584,1.857,4.538,4.89.363-3.741,3.17,1.166,4.764L18,21.838l-4.169,2.581L15,19.655l-3.747-3.17,4.89-.363L18,11.584Zm0-3.759A10.175,10.175,0,1,1,7.825,18,10.175,10.175,0,0,1,18,7.825Z" fill="#fe6d00" fill-rule="evenodd"/>
</svg>
