<svg xmlns="http://www.w3.org/2000/svg" width="31.419" height="29.983" viewBox="0 0 31.419 29.983">
  <path id="Icon_awesome-coins" data-name="Icon awesome-coins" d="M0,23.735v2.5c0,2.067,5.277,3.748,11.782,3.748S23.564,28.3,23.564,26.235v-2.5c-2.534,1.7-7.168,2.5-11.782,2.5S2.534,25.439,0,23.735ZM19.637,7.5c6.5,0,11.782-1.681,11.782-3.748S26.142,0,19.637,0,7.855,1.681,7.855,3.748,13.132,7.5,19.637,7.5ZM0,17.592v3.022c0,2.067,5.277,3.748,11.782,3.748s11.782-1.681,11.782-3.748V17.592c-2.534,1.991-7.174,3.022-11.782,3.022S2.534,19.583,0,17.592Zm25.528.644c3.516-.65,5.891-1.856,5.891-3.244v-2.5a15.53,15.53,0,0,1-5.891,2.02ZM11.782,9.37C5.277,9.37,0,11.466,0,14.055s5.277,4.685,11.782,4.685,11.782-2.1,11.782-4.685S18.287,9.37,11.782,9.37Zm13.457,3.3c3.682-.632,6.18-1.874,6.18-3.3v-2.5c-2.178,1.47-5.922,2.26-9.861,2.448A6.736,6.736,0,0,1,25.24,12.667Z" fill="#fe6d00"/>
</svg>
