<svg id="Group_1498" data-name="Group 1498" xmlns="http://www.w3.org/2000/svg" width="31.419" height="32.389" viewBox="0 0 31.419 32.389">
  <path id="Path_4893" data-name="Path 4893" d="M3757.541,688.538q2.277,0,4.554,0c.956,0,1.364.6,1.012,1.479q-.889,2.228-1.781,4.455a.99.99,0,0,1-1.085.732q-2.72,0-5.44,0a.987.987,0,0,1-1.062-.721q-.9-2.256-1.8-4.514a.956.956,0,0,1,.956-1.43C3754.442,688.534,3755.992,688.538,3757.541,688.538Z" transform="translate(-3747.071 -683.854)" fill="#fe6d00"/>
  <path id="Path_4891" data-name="Path 4891" d="M3702.433,844.25c-.572-.131-1.161-.213-1.714-.4a7.586,7.586,0,0,1-4.838-9.548,18.9,18.9,0,0,1,2.359-4.768,50.268,50.268,0,0,1,4.13-5.392,1.038,1.038,0,0,1,.832-.378q2.783,0,5.567,0a1.017,1.017,0,0,1,.813.351,42.742,42.742,0,0,1,5.069,6.888,13.689,13.689,0,0,1,1.719,4.488,7.608,7.608,0,0,1-5.832,8.566c-.338.074-.679.129-1.019.192Zm6.4-12.017a2.691,2.691,0,0,0-1.366-2.314.848.848,0,0,1-.549-.931.9.9,0,0,0-.912-.932.963.963,0,0,0-.971.891,2.474,2.474,0,0,0,0,.442c.016.181-.063.259-.217.36a4.65,4.65,0,0,0-1.057.827,2.527,2.527,0,0,0,.646,3.906c.285.177.591.321.887.481.454.245.918.471,1.354.744a.579.579,0,0,1,.21.827.96.96,0,0,1-1.034.557.983.983,0,0,1-.792-.969.949.949,0,1,0-1.9.076,2.637,2.637,0,0,0,1.322,2.34.928.928,0,0,1,.594,1,.834.834,0,0,0,.581.826.888.888,0,0,0,.949-.141.923.923,0,0,0,.353-.868.605.605,0,0,1,.393-.7,2.73,2.73,0,0,0,1.516-2.452,2.333,2.333,0,0,0-1.379-2.261c-.441-.245-.9-.461-1.344-.7-.278-.149-.555-.3-.818-.475a.563.563,0,0,1-.217-.722.949.949,0,0,1,1.851.258.982.982,0,0,0,1.013.987A.96.96,0,0,0,3708.835,832.232Z" transform="translate(-3695.526 -811.86)" fill="#fe6d00"/>
  <path id="Path_4892" data-name="Path 4892" d="M3922.94,689.564a6.664,6.664,0,1,1-6.645-6.673A6.673,6.673,0,0,1,3922.94,689.564Zm-1.909-.009a4.757,4.757,0,1,0-4.761,4.771A4.757,4.757,0,0,0,3921.031,689.555Z" transform="translate(-3891.521 -682.891)" fill="#fe6d00"/>
  <path id="Path_4894" data-name="Path 4894" d="M3772.856,781.553c-.917,0-1.833,0-2.749,0a1.431,1.431,0,1,1,.023-2.853c1.864,0,3.728,0,5.592,0a1.423,1.423,0,0,1,.351,2.805,2.116,2.116,0,0,1-.5.045C3774.667,781.555,3773.762,781.553,3772.856,781.553Z" transform="translate(-3762.409 -777.748)" fill="#fe6d00"/>
  <path id="Path_4895" data-name="Path 4895" d="M3956.59,731.764c-.316,0-.6,0-.88,0a.955.955,0,1,1-.006-1.906c.282-.008.565,0,.885,0v-.426c0-1.016.3-1.481.959-1.476s.943.461.943,1.489v.412c.31,0,.591-.005.872,0a.961.961,0,0,1,1.03.959.951.951,0,0,1-1.035.948c-.282,0-.564,0-.866,0,0,.327,0,.61,0,.893a.953.953,0,1,1-1.9-.016C3956.588,732.367,3956.59,732.094,3956.59,731.764Z" transform="translate(-3932.79 -724.146)" fill="#fe6d00"/>
</svg>
