<svg xmlns="http://www.w3.org/2000/svg" width="36" height="38.421" viewBox="0 0 36 38.421">
  <g id="hierarchy-management-icon" transform="translate(0 0.002)">
    <path id="Path_5065" data-name="Path 5065" d="M3.44,31.539A3.44,3.44,0,1,1,0,34.979a3.44,3.44,0,0,1,3.44-3.44ZM16.213,23.8H4.975v4.915a1.535,1.535,0,1,1-3.071,0V22.725A1.825,1.825,0,0,1,1.92,22.5a1.377,1.377,0,0,1-.016-.228A1.536,1.536,0,0,1,3.44,20.733H16.129l-.05-4.128a8.324,8.324,0,0,1-.913-.319,7.415,7.415,0,0,1-.866-.425l-.954,1.051a.961.961,0,0,1-1.313.05l-1.4-1.313a.929.929,0,0,1-.3-.647.841.841,0,0,1,.25-.65l1.048-1.132a7.449,7.449,0,0,1-.432-.866,8.238,8.238,0,0,1-.322-.922l-1.4.056a.9.9,0,0,1-.669-.25.921.921,0,0,1-.294-.638l-.075-1.92a.906.906,0,0,1,.241-.669.891.891,0,0,1,.647-.294l1.529-.059a7.834,7.834,0,0,1,.319-.922,7.415,7.415,0,0,1,.425-.866L10.56,4.914A.922.922,0,0,1,10.506,3.6l1.288-1.4a.929.929,0,0,1,.647-.3.853.853,0,0,1,.65.25l1.151,1.044a6.635,6.635,0,0,1,.841-.432,8.238,8.238,0,0,1,.922-.322l-.056-1.4A.9.9,0,0,1,16.2.364.921.921,0,0,1,16.838.07L18.758,0a.906.906,0,0,1,.669.241.891.891,0,0,1,.294.647l.059,1.529a8.324,8.324,0,0,1,.913.319,6.177,6.177,0,0,1,.866.425l.954-1.032a.922.922,0,0,1,1.316-.053l.019.016,1.4,1.288a.929.929,0,0,1,.3.647.853.853,0,0,1-.25.65L24.258,5.827a7.075,7.075,0,0,1,.432.857,9.639,9.639,0,0,1,.322.913l1.4-.056a.9.9,0,0,1,.669.25.921.921,0,0,1,.294.638l.075,1.92a.906.906,0,0,1-.241.669.891.891,0,0,1-.647.294l-1.529.059a8.325,8.325,0,0,1-.319.913,7.415,7.415,0,0,1-.425.866l1.051.954a.923.923,0,0,1,.285.647.943.943,0,0,1-.235.666l-1.313,1.4a.875.875,0,0,1-.638.3.866.866,0,0,1-.66-.25l-1.132-1.048a7.449,7.449,0,0,1-.866.432,8.238,8.238,0,0,1-.922.322l.047,4.146H32.564A1.536,1.536,0,0,1,34.1,22.262a1.824,1.824,0,0,1-.016.228,1.377,1.377,0,0,1,.016.228V28.71a1.535,1.535,0,1,1-3.071,0V23.8H19.9v4.425a1.842,1.842,0,1,1-3.683,0V23.8Zm1.57-18.064a3.709,3.709,0,0,1,1.482.235,3.958,3.958,0,0,1,1.235.757A3.857,3.857,0,0,1,21.35,7.9a3.824,3.824,0,0,1,.119,2.939,4.017,4.017,0,0,1-.757,1.235,3.857,3.857,0,0,1-1.169.851,3.824,3.824,0,0,1-2.939.119,3.958,3.958,0,0,1-1.235-.757,3.857,3.857,0,0,1-.851-1.169A3.824,3.824,0,0,1,14.4,8.175a4.017,4.017,0,0,1,.757-1.235,3.857,3.857,0,0,1,1.169-.851,3.673,3.673,0,0,1,1.457-.353Zm14.778,25.8a3.44,3.44,0,1,1-3.44,3.44,3.44,3.44,0,0,1,3.44-3.44Zm-14.621,0a3.44,3.44,0,1,1-3.44,3.44,3.44,3.44,0,0,1,3.44-3.44Z" transform="translate(0 0)" fill="#fe6d00" fill-rule="evenodd"/>
  </g>
</svg>
