<svg xmlns="http://www.w3.org/2000/svg" width="30.849" height="30.849" viewBox="0 0 30.849 30.849">
  <path id="Icon_metro-chart-line" data-name="Icon metro-chart-line" d="M32.131,30.851H29.563V29.563H28.275v1.288H25.711V29.563H24.423v1.288H21.855V29.563H20.567v1.288H18V29.563H16.711v1.288H14.143V29.563H12.855v1.288H7.2l6.774-4.071,3.352-9.8L22.3,25.735,31.953,9.658l-2.2-1.324L22.363,20.643l-5.625-9.886-4.9,14.3-6.7,4.028V2.571H2.571V33.419H33.419V29.563H32.131Zm0-28.28h1.288V3.859H32.131Zm-3.856,0h1.288V3.859H28.275Zm-3.852,0h1.288V3.859H24.423Zm-3.856,0h1.288V3.859H20.567Zm-3.856,0H18V3.859H16.711Zm-3.856,0h1.288V3.859H12.855ZM9,2.571h1.288V3.859H9Zm-3.856,0H6.431V3.859H5.143ZM32.131,6.427h1.288V7.715H32.131Zm-3.856,0h1.288V7.715H28.275Zm-3.852,0h1.288V7.715H24.423Zm-3.856,0h1.288V7.715H20.567Zm-3.856,0H18V7.715H16.711Zm-3.856,0h1.288V7.715H12.855ZM9,6.427h1.288V7.715H9Zm-3.856,0H6.431V7.715H5.143Zm26.989,3.852h1.288v1.288H32.131Zm-7.708,0h1.288v1.288H24.423Zm-3.856,0h1.288v1.288H20.567Zm-7.712,0h1.288v1.288H12.855ZM9,10.279h1.288v1.288H9Zm-3.856,0H6.431v1.288H5.143Zm26.989,3.856h1.288v1.288H32.131Zm-11.564,0h1.288v1.288H20.567Zm-7.712,0h1.288v1.288H12.855ZM9,14.135h1.288v1.288H9Zm-3.856,0H6.431v1.288H5.143Zm26.989,3.859h1.288v1.288H32.131Zm-3.856,0h1.288v1.288H28.275ZM9,17.994h1.288v1.288H9Zm-3.856,0H6.431v1.288H5.143ZM32.131,21.85h1.288v1.288H32.131Zm-3.856,0h1.288v1.288H28.275Zm-11.564,0H18v1.288H16.711ZM9,21.85h1.288v1.288H9Zm-3.856,0H6.431v1.288H5.143ZM32.131,25.7h1.288V26.99H32.131Zm-3.856,0h1.288V26.99H28.275Zm-3.852,0h1.288V26.99H24.423Zm-7.712,0H18V26.99H16.711Zm-11.568,0H6.431V26.99H5.143Z" transform="translate(-2.571 -2.571)" fill="#fe6d00"/>
</svg>
